<svg width="71" height="71" viewBox="0 0 71 71" fill="none" xmlns="http://www.w3.org/2000/svg">
<g clip-path="url(#clip0_6_135)">
<mask id="mask0_6_135" style="mask-type:luminance" maskUnits="userSpaceOnUse" x="0" y="0" width="71" height="71">
<path d="M0 35.4954C0 55.102 15.8933 70.9954 35.5 70.9954C55.1067 70.9954 71 55.1067 71 35.4954C71 15.8841 55.1067 0 35.5 0C15.8933 0 0 15.8933 0 35.4954Z" fill="white"/>
</mask>
<g mask="url(#mask0_6_135)">
<path d="M0 35.4954C0 55.102 15.8933 70.9954 35.5 70.9954C55.1067 70.9954 71 55.1067 71 35.4954C71 15.8841 55.1067 0 35.5 0C15.8933 0 0 15.8933 0 35.4954Z" fill="url(#paint0_linear_6_135)"/>
</g>
<path d="M35.5 3.24029C53.3162 3.24029 67.7597 17.6837 67.7597 35.5C67.7597 53.3162 53.3162 67.7597 35.5 67.7597C17.6837 67.7597 3.24028 53.3162 3.24028 35.4954C3.24028 17.6745 17.6837 3.24029 35.5 3.24029ZM35.5 1.88593C16.9657 1.88593 1.88593 16.9657 1.88593 35.5C1.88593 54.0343 16.9657 69.1141 35.5 69.1141C54.0343 69.1141 69.1141 54.0343 69.1141 35.4954C69.1141 16.9565 54.0343 1.88593 35.5 1.88593Z" fill="white"/>
<path d="M15.3494 45.4767C15.7839 45.2086 15.2862 44.8804 15.6391 44.6631C15.7932 44.5676 15.9349 44.5923 16.1183 44.8881L16.9703 46.2656C17.1522 46.5614 17.1136 46.6985 16.9565 46.7956C16.6052 47.0129 16.5343 46.4227 16.0998 46.6908L11.8688 49.3102C11.5606 49.5028 11.5159 49.6183 12.0737 50.5213C13.1522 52.2593 13.787 51.569 14.0505 51.9958C14.1229 52.1098 14.0798 52.2269 13.8425 52.3748C13.4743 52.6029 12.7131 52.8016 12.4281 52.3409L10.1169 48.603C9.93505 48.3071 9.97511 48.17 10.1307 48.0745C10.4836 47.8557 10.5545 48.4473 10.989 48.1777L15.3494 45.4767Z" fill="white"/>
<path d="M16.1584 56.5273C15.8856 56.3146 15.8749 56.1713 15.9873 56.0265C16.2431 55.6998 16.5143 56.2314 16.8286 55.8277L19.9826 51.7847C20.2908 51.3825 19.7176 51.2485 19.9718 50.9218C20.0859 50.777 20.2261 50.7539 20.5003 50.9665L23.9872 53.6876C24.3446 53.968 24.3523 54.1498 23.8131 54.8355C23.6882 54.9895 23.6035 55.0265 23.5049 54.9556C23.3385 54.8262 23.4263 54.6475 23.2476 54.2037C23.1089 53.8509 22.7653 53.5705 22.1798 53.1144C21.3663 52.4796 21.2553 52.458 20.8763 52.9526L19.9025 54.1976L21.226 55.2299C21.6667 55.5735 21.8824 55.327 22.0874 55.4888C22.2553 55.6182 22.1629 55.8154 21.9132 56.1344C21.582 56.5596 21.4664 56.6906 21.2769 56.5427C21.0489 56.3639 21.3308 56.1436 20.8147 55.7415L19.5003 54.7153L18.4387 56.0743C17.7978 56.8955 17.8224 56.9987 18.2431 57.3269C19.337 58.1821 20.0489 58.615 20.4449 58.4841C20.7083 58.3962 20.8932 58.3808 21.0211 58.4841C21.0535 58.507 21.0804 58.5369 21.1 58.5714C21.1195 58.606 21.1311 58.6445 21.1341 58.6841C21.137 58.7236 21.1312 58.7634 21.117 58.8005C21.1028 58.8376 21.0806 58.871 21.0519 58.8985C20.5127 59.5904 20.1953 59.6844 19.7916 59.37L16.1584 56.5273Z" fill="white"/>
<path d="M27.5433 62.1681C29.2536 62.7043 29.383 61.8461 29.8545 61.9956C29.8881 62.0028 29.9196 62.0175 29.9465 62.0388C29.9735 62.06 29.9952 62.0871 30.0101 62.118C30.025 62.149 30.0326 62.1829 30.0323 62.2172C30.0321 62.2515 30.024 62.2853 30.0086 62.3161C29.9038 62.6473 29.5464 63.484 29.2274 63.3838L24.9425 62.0387C24.5372 61.9124 24.4232 61.6951 24.5357 61.407C24.7761 60.5734 29.6696 57.4425 29.8145 56.9818C29.8314 56.9263 29.8145 56.8632 29.6465 56.8077C28.0518 56.2869 27.5834 56.2006 27.078 56.5273C26.9748 56.5966 26.7822 56.726 26.6158 56.6813C26.5797 56.6718 26.546 56.6549 26.5169 56.6316C26.4878 56.6083 26.4638 56.5792 26.4465 56.5462C26.4293 56.5131 26.4191 56.4768 26.4167 56.4396C26.4143 56.4024 26.4196 56.3651 26.4324 56.33C26.5865 55.8154 26.9255 55.2731 27.2752 55.3825L31.2027 56.6151C31.4138 56.6814 31.6033 56.8817 31.5463 57.065C31.2012 58.1605 26.3523 61.1836 26.2075 61.6427C26.1874 61.709 26.2229 61.7583 26.3508 61.7968L27.5433 62.1681Z" fill="white"/>
<path d="M37.1486 63.2714C38.9391 63.1912 38.7665 62.3469 39.2657 62.3191C39.4398 62.3114 39.5122 62.4131 39.5184 62.5672C39.5338 62.9139 39.4783 63.823 39.1501 63.8384L34.6649 64.0387C34.2412 64.0572 34.0609 63.8846 34.0655 63.5764C34.0085 62.7105 37.5354 58.0973 37.5138 57.6166C37.5138 57.5581 37.4784 57.5011 37.2966 57.5088C35.6202 57.5658 35.1518 57.6444 34.7866 58.1251C34.7142 58.2252 34.5786 58.4147 34.4045 58.4225C34.3674 58.4257 34.33 58.4211 34.2948 58.4091C34.2595 58.3971 34.2272 58.3778 34.1998 58.3526C34.1724 58.3274 34.1505 58.2967 34.1356 58.2626C34.1207 58.2285 34.1131 58.1916 34.1133 58.1544C34.0886 57.6151 34.2165 56.9926 34.5755 56.9756L38.6864 56.7938C38.9067 56.7846 39.1486 56.9063 39.1625 57.102C39.2133 58.2483 35.691 62.7459 35.7126 63.2267C35.7126 63.2945 35.765 63.3314 35.9006 63.3253L37.1486 63.2714Z" fill="white"/>
<path d="M44.4089 62.6566C44.0884 62.7906 43.959 62.7305 43.8881 62.561C43.7263 62.1805 44.3211 62.2021 44.1223 61.7306L42.1254 57.0126C41.9267 56.5504 41.5276 56.9834 41.3674 56.6012C41.2949 56.4333 41.3427 56.2931 41.6616 56.1637L45.7355 54.4472C46.1531 54.2716 46.3118 54.3501 46.66 55.1575C46.7386 55.3439 46.7247 55.4349 46.6184 55.4795C46.4243 55.5612 46.3102 55.3994 45.8372 55.3393C45.4612 55.2885 45.0499 55.4518 44.3673 55.7399C43.4181 56.1421 43.3473 56.2238 43.5969 56.8L44.2132 58.2545L45.754 57.6028C46.2686 57.3855 46.1592 57.0758 46.3981 56.9741C46.5937 56.8925 46.7201 57.0696 46.8772 57.4364C47.0868 57.934 47.1453 58.0958 46.9235 58.1913C46.6585 58.3038 46.603 57.9494 45.999 58.2037L44.4582 58.8539L45.13 60.4409C45.5352 61.3993 45.6323 61.4317 46.1284 61.2206C47.4057 60.6813 48.1315 60.2699 48.2085 59.8616C48.2609 59.5889 48.3364 59.4209 48.4874 59.3577C48.5232 59.3405 48.5623 59.3314 48.602 59.3311C48.6418 59.3308 48.681 59.3393 48.7171 59.3559C48.7532 59.3725 48.7851 59.3969 48.8107 59.4274C48.8362 59.4578 48.8547 59.4934 48.8649 59.5318C49.2054 60.3392 49.133 60.6612 48.663 60.8616L44.4089 62.6566Z" fill="white"/>
<path d="M55.0558 54.8617C55.4087 55.2299 55.6721 54.6367 55.9541 54.9357C56.0804 55.0682 56.0851 55.2115 55.8339 55.4518L54.5812 56.6521C54.3301 56.8925 54.1883 56.8817 54.0604 56.7492C53.7739 56.4503 54.3794 56.2191 54.0266 55.8493L50.4827 52.1514C50.3086 51.9696 50.1853 51.9973 49.928 52.2408C49.0929 53.042 49.549 53.7261 49.2362 54.0266C49.096 54.1591 48.9743 54.1021 48.8618 53.985C48.6701 53.7392 48.5 53.4773 48.3533 53.2023C48.2424 53.0019 48.284 52.908 48.4304 52.7677L52.2177 49.1407C52.3717 49.0005 52.4596 48.962 52.6552 49.0822C52.9237 49.2401 53.1778 49.421 53.4149 49.623C53.5273 49.7401 53.5797 49.8649 53.441 49.9974C53.1329 50.3056 52.4627 49.8125 51.6275 50.6137C51.3687 50.8602 51.3394 50.9835 51.5135 51.1638L55.0558 54.8617Z" fill="white"/>
<path d="M59.9556 48.1299C60.4024 48.3749 60.444 47.7817 60.8061 47.9758C60.9602 48.0652 61.0126 48.2008 60.8461 48.5043L60.0634 49.9219C59.8955 50.23 59.7553 50.2593 59.6012 50.1699C59.2391 49.9696 59.7183 49.6199 59.2715 49.3718L54.7754 46.8973C54.3286 46.6508 54.287 47.2455 53.9233 47.0514C53.7693 46.962 53.7169 46.8264 53.8848 46.5229L54.6675 45.1053C54.8355 44.7972 54.9757 44.7679 55.1298 44.8573C55.4934 45.0576 55.0127 45.4089 55.4595 45.6554L59.9556 48.1299Z" fill="white"/>
<path d="M60.1528 37.1086C60.2316 37.6632 60.4467 38.1897 60.7787 38.6409C61.1108 39.0921 61.5495 39.4539 62.0557 39.6941C62.0836 39.7097 62.1059 39.7336 62.1196 39.7625C62.1334 39.7915 62.1377 39.8239 62.1321 39.8554C62.1265 39.8869 62.1113 39.9159 62.0885 39.9384C62.0657 39.9608 62.0364 39.9756 62.0048 39.9807C61.4423 40.0458 60.904 40.2466 60.4362 40.5657C59.9684 40.8848 59.5851 41.3127 59.3192 41.8127C59.3064 41.8455 59.2827 41.8729 59.2522 41.8903C59.2216 41.9078 59.186 41.9143 59.1513 41.9087C59.1165 41.9031 59.0847 41.8858 59.0611 41.8597C59.0376 41.8335 59.0237 41.8001 59.0218 41.7649C58.9432 41.21 58.7283 40.6832 58.3962 40.2318C58.0641 39.7803 57.6253 39.4182 57.119 39.1779C57.0911 39.1624 57.0687 39.1386 57.0549 39.1098C57.0411 39.081 57.0366 39.0486 57.042 39.0171C57.0474 38.9857 57.0625 38.9566 57.0851 38.9341C57.1077 38.9116 57.1368 38.8966 57.1683 38.8913C57.7292 38.8251 58.2658 38.6238 58.732 38.3048C59.1981 37.9857 59.5799 37.5583 59.8446 37.0593C59.8575 37.0264 59.8813 36.999 59.912 36.9816C59.9427 36.9641 59.9784 36.9578 60.0133 36.9635C60.0481 36.9693 60.0799 36.9869 60.1033 37.0133C60.1268 37.0397 60.1404 37.0733 60.142 37.1086" fill="white"/>
<path d="M10.8981 37.1086C10.8195 37.6629 10.6049 38.1892 10.2734 38.6403C9.9419 39.0915 9.50381 39.4535 8.99826 39.6941C8.97034 39.7097 8.94797 39.7336 8.93427 39.7625C8.92057 39.7915 8.91621 39.8239 8.9218 39.8554C8.92739 39.8869 8.94265 39.9159 8.96547 39.9384C8.98828 39.9608 9.01751 39.9756 9.04911 39.9807C9.60971 40.0475 10.1458 40.249 10.6116 40.568C11.0774 40.8871 11.459 41.3141 11.7239 41.8127C11.7367 41.8455 11.7604 41.8729 11.7909 41.8903C11.8215 41.9078 11.8571 41.9143 11.8919 41.9087C11.9266 41.9031 11.9584 41.8858 11.982 41.8597C12.0055 41.8335 12.0194 41.8001 12.0213 41.7649C12.1011 41.2103 12.3171 40.6842 12.65 40.2336C12.9828 39.7829 13.4222 39.4218 13.9288 39.1825C13.9567 39.167 13.9791 39.1432 13.9929 39.1144C14.0067 39.0856 14.0112 39.0532 14.0058 39.0217C14.0003 38.9903 13.9853 38.9613 13.9627 38.9387C13.9401 38.9162 13.911 38.9012 13.8795 38.8959C13.3175 38.8297 12.78 38.628 12.3133 38.3081C11.8465 37.9881 11.4645 37.5596 11.2001 37.0593C11.1872 37.0264 11.1634 36.999 11.1327 36.9816C11.102 36.9641 11.0662 36.9578 11.0314 36.9635C10.9966 36.9693 10.9648 36.9869 10.9414 37.0133C10.9179 37.0397 10.9043 37.0733 10.9027 37.1086" fill="white"/>
<path d="M15.3155 25.0472C13.8749 24.6482 12.6869 25.5634 12.0798 26.8053C11.9612 25.8207 11.4712 24.6666 10.4189 24.3754C9.36649 24.0842 8.13077 24.4679 7.47593 26.8299L6.17241 31.5401C6.09229 31.8267 6.08613 32.2027 6.43743 32.2982C6.67009 32.3629 6.80877 32.3167 6.98596 32.0317C7.16315 31.7466 7.32802 31.8052 7.83494 31.9454L14.0382 33.6618C14.4927 33.7882 14.693 33.8714 14.7423 34.2489C14.7824 34.4553 14.8209 34.6202 15.0505 34.6834C15.4003 34.782 15.5882 34.4569 15.6668 34.1703L17.0535 29.1488C17.6514 26.9917 16.7901 25.4509 15.3109 25.0472M11.1507 30.3229L8.67313 29.6403C8.01059 29.4585 7.74865 29.3137 8.02754 28.2891C8.25095 27.4832 8.66234 26.551 9.68697 26.8346C11.0629 27.2151 11.2432 29.1365 11.1646 30.3306M15.6976 30.4123C15.4419 31.3368 15.2785 31.4693 14.448 31.2397L12.217 30.6234C12.2951 29.9345 12.3188 29.2405 12.2878 28.5479C12.7408 27.8207 13.6345 27.3153 14.5051 27.5541C15.8548 27.9285 16.0212 29.249 15.6976 30.4138" fill="white"/>
<path d="M24.3184 16.8702C24.2298 16.7855 24.112 16.7383 23.9894 16.7383C23.8669 16.7383 23.7491 16.7855 23.6605 16.8702C23.4032 17.1075 23.4463 17.6144 23.4494 17.9395C23.4494 18.7962 23.0873 19.1721 22.491 19.7238C21.129 20.9487 20.9502 20.9887 20.0103 19.9626L18.4403 18.2384L19.9425 16.8671C20.6205 16.2508 20.8578 16.6714 21.1967 16.3633C21.5943 15.9996 21.0273 15.4788 20.7823 15.2092C20.5373 14.9396 20.1552 14.5236 19.807 14.8394C19.4587 15.1553 19.9148 15.4172 19.2076 16.0628L17.7053 17.4326L16.0443 15.6191C15.8625 15.4203 15.7223 15.1661 16.7469 14.2323C17.7716 13.2986 18.0551 13.1677 18.8131 13.2401C19.0797 13.2724 19.3247 13.3217 19.5435 13.1214C19.8023 12.8857 19.7207 12.5945 19.5127 12.3664C19.3046 12.1384 18.7546 11.6161 18.4803 11.576C18.3108 11.5498 18.1229 11.6839 17.8239 11.955L13.1769 16.1938C12.9581 16.3925 12.7532 16.7084 12.9966 16.9765C13.1615 17.1568 13.3048 17.1922 13.6052 17.0428C13.9057 16.8933 14.0151 17.0335 14.3756 17.4218L18.7053 22.169C19.0227 22.5172 19.149 22.6944 18.9903 23.0411C18.9133 23.2368 18.8594 23.397 19.0227 23.5758C19.2677 23.8438 19.6005 23.6697 19.8193 23.4694L24.6851 19.0319C25.1335 18.6236 25.1766 18.5111 24.9255 17.9749C24.7868 17.6437 24.5634 17.1383 24.3092 16.8702" fill="white"/>
<path d="M37.0901 14.6407C36.7434 14.5159 36.7296 14.3325 36.6649 13.9149L35.6957 7.54682C35.6295 7.10769 35.5832 6.8966 35.9592 6.67473C36.0458 6.63209 36.1169 6.56339 36.1625 6.47828C36.2081 6.39316 36.2259 6.29591 36.2134 6.20016C36.1595 5.83961 35.7851 5.80109 35.4923 5.84732L32.9608 6.23098C32.668 6.2772 32.3229 6.42358 32.3768 6.78412C32.3931 6.87973 32.4391 6.96777 32.5083 7.0358C32.5774 7.10382 32.6662 7.14838 32.762 7.16316C33.1595 7.26485 33.2011 7.44975 33.272 7.91661L33.6172 10.18L29.645 10.7856L29.2998 8.5206C29.2136 7.94743 29.2367 7.83495 29.5633 7.64851C29.6539 7.61088 29.7288 7.54308 29.7751 7.45658C29.8214 7.37009 29.8364 7.27023 29.8176 7.17395C29.7636 6.8134 29.3892 6.77488 29.0965 6.81956L26.5634 7.20476C26.2706 7.25099 25.9255 7.39736 25.9794 7.75791C25.9977 7.85249 26.0444 7.93927 26.1132 8.0067C26.182 8.07413 26.2697 8.11902 26.3646 8.1354C26.736 8.24326 26.7991 8.39734 26.8746 8.89039L27.8438 15.257C27.9147 15.7192 27.9039 15.9164 27.6697 16.0875C27.4355 16.2585 27.2906 16.3633 27.3261 16.6036C27.3816 16.9626 27.7544 17.0012 28.0487 16.9565L30.5787 16.5713C30.8715 16.5281 31.2181 16.3787 31.1627 16.0197C31.1257 15.7793 30.967 15.7223 30.7205 15.6237C30.346 15.4896 30.3399 15.354 30.2675 14.8887L29.7991 11.784L33.7682 11.18L34.2412 14.2832C34.3044 14.6977 34.309 14.995 33.9577 15.1984C33.873 15.2298 33.8026 15.2908 33.7596 15.3702C33.7165 15.4495 33.7037 15.5418 33.7235 15.6298C33.7789 15.9904 34.1518 16.0289 34.4461 15.9827L36.9776 15.5975C37.2704 15.5543 37.6155 15.4049 37.5601 15.0459C37.5246 14.8055 37.3659 14.7485 37.0978 14.6407" fill="white"/>
<path d="M46.4474 8.26792L44.0329 7.41586C43.754 7.31725 43.3796 7.2849 43.2625 7.62849C43.1824 7.85653 43.2178 7.99674 43.4921 8.19396C43.7664 8.39119 43.6939 8.55143 43.5198 9.04757L41.375 15.1183C41.221 15.5636 41.1208 15.7577 40.7418 15.7809C40.5322 15.807 40.3643 15.8332 40.2795 16.0628C40.1578 16.4049 40.4706 16.616 40.7495 16.7146L43.1639 17.5666C43.4428 17.6653 43.8172 17.6976 43.9343 17.3556C44.016 17.126 43.9035 17.0012 43.6862 16.767C43.469 16.5328 43.5399 16.3294 43.6862 15.9365L45.8233 9.86265C45.9774 9.4189 46.0683 9.24633 46.5352 9.18624C46.6189 9.18973 46.7014 9.16549 46.7699 9.1173C46.8385 9.0691 46.8892 8.99964 46.9142 8.91968C47.0344 8.57762 46.7231 8.36654 46.452 8.26792" fill="white"/>
<path d="M54.4842 22.377C57.2361 19.6036 51.9511 16.8302 53.6583 15.1045C54.2746 14.4881 55.2284 14.8225 55.7738 15.3633C57.3408 16.9195 55.9171 18.2015 56.4333 18.713C56.6721 18.9503 56.9479 18.901 57.176 18.6729C57.473 18.396 57.7372 18.0858 57.9633 17.7485C58.0012 17.6654 58.0221 17.5756 58.025 17.4844C58.028 17.3931 58.0127 17.3022 57.9803 17.2169C57.6477 16.2387 57.0935 15.3507 56.3609 14.6222C53.8956 12.1739 51.8048 13.5328 51.3502 13.9935C48.5598 16.8024 53.9033 19.6005 52.2331 21.2831C51.4735 22.0535 50.321 21.5912 49.6615 20.9318C48.7725 20.0489 48.6538 19.0967 48.7663 18.525C48.9728 17.4773 48.9527 17.3432 48.6954 17.0875C48.4381 16.8317 47.9697 16.881 47.7047 17.1476C47.3041 17.5512 46.677 19.3709 48.8803 21.6467L48.4766 21.9548C48.4548 21.9692 48.4369 21.9889 48.4248 22.0121C48.4127 22.0353 48.4066 22.0612 48.4073 22.0874C48.4072 22.1135 48.4126 22.1394 48.4232 22.1633C48.4338 22.1872 48.4494 22.2086 48.4689 22.226C48.52 22.2692 48.5746 22.3078 48.6322 22.3416C48.7053 22.3862 48.774 22.4378 48.8372 22.4957C48.8894 22.5433 48.9237 22.6075 48.9342 22.6775C48.9354 22.7062 48.9303 22.7348 48.9194 22.7614C48.9085 22.788 48.892 22.8119 48.8711 22.8316C48.7303 22.9702 48.5449 22.9235 48.3148 22.6913C48.1878 22.5557 48.0762 22.4063 47.982 22.2461C47.9664 22.2091 47.9402 22.1776 47.9068 22.1555C47.8733 22.1333 47.8342 22.1214 47.7941 22.1213C47.7535 22.1214 47.7133 22.13 47.6762 22.1465C47.6391 22.1629 47.6058 22.1868 47.5783 22.2168C47.5366 22.2584 47.5096 22.3125 47.5013 22.3709C47.4898 22.4319 47.4957 22.4949 47.5182 22.5527C47.6245 22.7602 47.7652 22.9483 47.9343 23.1089C48.1507 23.3547 48.4383 23.527 48.7571 23.602C48.8754 23.6278 48.9983 23.6232 49.1145 23.5887C49.2306 23.5543 49.3361 23.491 49.4211 23.4047C49.4909 23.3422 49.5454 23.2646 49.5806 23.1778C49.6159 23.0911 49.6309 22.9974 49.6245 22.904C49.6092 22.7158 49.5253 22.5398 49.3888 22.4094C49.3564 22.3786 49.2979 22.3293 49.2162 22.263L49.4026 22.1089C51.4519 23.83 53.5197 23.3416 54.4873 22.3724" fill="white"/>
<path d="M64.7628 31.6172L63.068 24.9286C62.9139 24.34 62.8877 24.209 62.0402 24.2707C61.7823 24.2782 61.525 24.3014 61.2699 24.34C60.9617 24.417 60.8076 24.5834 60.8816 24.8978C61.0356 25.4987 62.1404 25.3169 62.5164 26.8053C62.6458 27.3137 62.4794 27.3707 61.9447 27.5063L55.7122 29.0795C55.25 29.195 55.0404 29.2212 54.8108 28.9254C54.6721 28.7713 54.5581 28.6419 54.3224 28.7005C53.9696 28.7898 53.968 29.1627 54.0404 29.4539L54.6675 31.9361C54.7399 32.2227 54.9202 32.5525 55.2731 32.4631C55.5088 32.4045 55.5504 32.2397 55.6244 31.93C55.6983 31.6203 55.9079 31.5663 56.3131 31.4677L62.5441 29.8946C63.0803 29.759 63.2529 29.7282 63.3823 30.2382C63.7582 31.7281 62.6966 32.0871 62.8492 32.6942C62.9277 33.0024 63.1573 33.0763 63.4547 33.0024C63.6995 32.9154 63.9383 32.8125 64.1696 32.6942C64.94 32.346 64.9108 32.215 64.7613 31.628" fill="white"/>
<path d="M34.705 31.1642C34.6325 31.0795 34.5663 31.0009 34.5016 30.9146C34.5339 30.9608 34.5601 30.9932 34.594 31.0394C34.6279 31.0856 34.6664 31.1257 34.6988 31.1719L34.705 31.1642ZM34.705 31.1642C34.6325 31.0795 34.5663 31.0009 34.5016 30.9146C34.5339 30.9608 34.5601 30.9932 34.594 31.0394C34.6279 31.0856 34.6664 31.1257 34.6988 31.1719L34.705 31.1642ZM34.705 31.1642C34.6325 31.0795 34.5663 31.0009 34.5016 30.9146C34.5339 30.9608 34.5601 30.9932 34.594 31.0394C34.6279 31.0856 34.6664 31.1257 34.6988 31.1719L34.705 31.1642ZM48.3595 35.2458L48.2671 35.1133C48.1946 35.0208 46.4936 32.7543 42.9066 32.7543C41.2195 32.7543 39.7295 33.4723 38.4383 34.4153C38.8143 34.7111 39.1841 34.9885 39.5662 35.2396C40.5877 34.5601 41.7017 34.0717 42.9082 34.0717C44.7741 34.0717 46.0006 34.8036 46.6539 35.3382C46.7001 35.3783 46.7401 35.4168 46.7786 35.4507C46.7324 35.4831 46.6939 35.517 46.64 35.5493C45.538 36.2979 44.2342 36.6934 42.902 36.6833C41.7295 36.6833 40.6216 36.275 39.5723 35.6217C39.5488 35.6136 39.5265 35.6021 39.5061 35.5878C39.4761 35.571 39.4477 35.5514 39.4213 35.5293C39.3684 35.5011 39.317 35.4703 39.2673 35.4368C39.0761 35.3196 38.8914 35.192 38.7141 35.0547C38.7141 35.0547 38.7141 35.0547 38.7064 35.0547C38.5231 34.9161 38.3443 34.7774 38.1671 34.6248C38.119 34.5897 38.0728 34.5522 38.0285 34.5124L37.9036 34.4076C37.4815 34.0517 37.0855 33.6819 36.6849 33.2998C36.5462 33.4538 36.3937 33.6079 36.2427 33.762C36.0917 33.9161 35.9191 34.084 35.7542 34.2366C36.124 34.5925 36.4923 34.9345 36.8759 35.2643L37.0007 35.3706C37.047 35.4091 37.0855 35.4492 37.1317 35.4815C37.4815 35.7774 37.8235 36.0485 38.1856 36.2981C38.23 36.3316 38.2763 36.3625 38.3243 36.3906C38.3671 36.428 38.4136 36.461 38.463 36.4892C38.634 36.6079 38.8127 36.7203 38.9899 36.8266C39.0238 36.8528 39.0639 36.8729 39.1024 36.8991C39.3535 37.0439 39.6032 37.1764 39.8605 37.2935C39.8696 37.3023 39.8817 37.3073 39.8944 37.3074C39.9067 37.3074 39.9129 37.3212 39.9267 37.3212C40.0392 37.3736 40.1517 37.4198 40.2703 37.4661C40.2927 37.4805 40.3171 37.4914 40.3427 37.4984C40.4213 37.5323 40.4968 37.5647 40.58 37.5909L40.7449 37.6494L41.0022 37.7295C41.0495 37.7477 41.0979 37.7632 41.147 37.7758C41.307 37.8229 41.4695 37.8604 41.6339 37.8883C41.7402 37.9067 41.8389 37.9268 41.9421 37.9406L42.2595 37.9807C42.4706 37.9992 42.6878 38.0131 42.9051 38.0131C43.1223 38.0131 43.2872 38.0131 43.4721 37.993C43.5541 37.9884 43.6359 37.9797 43.7171 37.9668C43.8203 37.9648 43.9232 37.956 44.0252 37.9406C44.0453 37.9406 44.0653 37.9406 44.0915 37.9268L44.2363 37.9067C44.2542 37.9099 44.2724 37.9099 44.2903 37.9067C44.3719 37.8944 44.4443 37.8713 44.5275 37.8544L44.751 37.8066C44.808 37.7912 44.8665 37.785 44.922 37.7681C44.9655 37.7639 45.0081 37.753 45.0483 37.7357C45.0774 37.7298 45.1058 37.721 45.1331 37.7095C45.1757 37.7003 45.2179 37.689 45.2594 37.6756C45.3519 37.6494 45.4274 37.6155 45.5137 37.5863C45.5676 37.5678 45.62 37.5508 45.6677 37.5308C45.7155 37.5108 45.8095 37.4846 45.8742 37.4584C45.9274 37.4409 45.979 37.4187 46.0283 37.3921C46.1084 37.3598 46.1824 37.3274 46.2594 37.2935C46.3364 37.2596 46.3719 37.2411 46.4243 37.2088C46.4887 37.1863 46.5506 37.1574 46.6092 37.1225C46.6694 37.0956 46.7268 37.0626 46.7802 37.0239C46.8319 37.0039 46.8806 36.9769 46.925 36.9437C46.9847 36.9134 47.0419 36.8784 47.0961 36.839C47.1501 36.8152 47.2017 36.7864 47.2501 36.7527C47.3487 36.688 47.4412 36.6217 47.5259 36.5616C47.5603 36.5373 47.5932 36.5111 47.6245 36.483L47.6846 36.443C47.8637 36.3098 48.0336 36.1646 48.1931 36.0085C48.1931 35.9946 48.2054 35.9946 48.2054 35.9884C48.2054 35.9823 48.2178 35.9746 48.2178 35.9746L48.5937 35.5786L48.3595 35.2458ZM36.4954 29.1011C37.4841 27.7388 38.0257 26.1033 38.0454 24.4201C38.0548 23.4863 37.8737 22.5603 37.5131 21.6988C37.1525 20.8372 36.6201 20.0583 35.9484 19.4095L35.8297 19.297L35.5 18.9934L35.1764 19.3016L35.0516 19.4141C34.3827 20.0646 33.8526 20.844 33.4935 21.7053C33.1343 22.5665 32.9537 23.4917 32.9623 24.4248C32.9788 26.0491 33.4817 27.6312 34.406 28.967C34.7486 28.6622 35.05 28.3142 35.3028 27.9316V27.9239C34.6503 26.8692 34.2967 25.6571 34.2797 24.4171C34.2681 23.1842 34.6622 21.9817 35.4014 20.9949C35.4338 20.9487 35.4677 20.9025 35.5 20.864C35.5339 20.9102 35.5663 20.9487 35.5986 20.9949C35.6063 20.9949 35.6063 20.9949 35.6063 20.9949C36.3501 21.9808 36.7462 23.1853 36.7326 24.4201C36.716 25.6611 36.3601 26.8739 35.7034 27.927V27.9347C35.6748 27.9887 35.6418 28.0402 35.6048 28.0888C35.5782 28.1396 35.5472 28.1881 35.5123 28.2336C35.2541 28.6059 34.9508 28.9449 34.6094 29.2428C34.5718 29.2799 34.5322 29.3149 34.4908 29.3476C34.4693 29.3689 34.4449 29.3871 34.4184 29.4015C34.3937 29.4128 34.3712 29.4285 34.3521 29.4478C34.2479 29.5303 34.1376 29.6049 34.0224 29.6712L33.9839 29.6912C34.2473 30.041 34.5108 30.3969 34.7882 30.7389V30.7466C34.9507 30.6491 35.1053 30.5389 35.2504 30.4169C35.2748 30.4051 35.2972 30.3895 35.3167 30.3707C35.3417 30.3542 35.364 30.3339 35.3829 30.3106C35.4014 30.2993 35.419 30.2864 35.4353 30.2721C35.4621 30.2555 35.4865 30.2353 35.5077 30.212C35.8398 29.9236 36.1404 29.6008 36.4045 29.249C36.4368 29.2028 36.4707 29.1627 36.5031 29.1165M35.2566 36.7974C34.9145 36.4553 34.5386 36.0917 34.1364 35.7188C34.097 35.6789 34.0554 35.6414 34.0116 35.6063L33.8914 35.4954C33.5632 35.2042 33.2196 34.9145 32.8575 34.6372C32.8113 34.6048 32.7651 34.5647 32.7189 34.5324L32.5725 34.4168C31.2875 33.48 29.7991 32.7559 28.1042 32.7559C24.5234 32.7559 22.8162 35.0224 22.7499 35.1148L22.6513 35.2535L22.4202 35.5616L22.6852 35.839L22.7977 35.9515C22.8762 36.0378 24.7683 38.0023 28.098 38.0023C29.7266 38.0023 31.1796 37.4029 32.5216 36.4861C32.1719 36.178 31.816 35.8991 31.4338 35.6279C30.3861 36.2673 29.2767 36.6833 28.098 36.6833C26.7692 36.6962 25.4686 36.3004 24.3724 35.5493C24.3238 35.5221 24.2775 35.4912 24.2337 35.4569C24.2737 35.4168 24.32 35.3845 24.3662 35.3444C25.018 34.8036 26.2383 34.0717 28.1042 34.0717C29.3045 34.0717 30.4154 34.5601 31.4338 35.2396C31.4862 35.2658 31.5386 35.3059 31.5879 35.3382L31.7251 35.4368C32.0988 35.7067 32.4588 35.9952 32.8036 36.3012C32.8505 36.3348 32.8948 36.3719 32.9361 36.4122C32.9806 36.4464 33.0223 36.484 33.0609 36.5246C33.5093 36.9345 33.9253 37.3366 34.3074 37.7188C34.4615 37.5416 34.6248 37.3767 34.7897 37.218C34.9546 37.0593 35.0794 36.9407 35.2381 36.7835L35.2566 36.7974ZM36.9191 31.4647C36.7083 31.3871 36.5024 31.2965 36.3028 31.1935C36.1179 31.4246 35.9268 31.6557 35.7219 31.873H35.7296C35.6963 31.9164 35.6609 31.958 35.6233 31.9978C35.5832 32.0378 35.5509 32.0841 35.5108 32.1241C35.366 32.2782 35.2211 32.4323 35.0701 32.5864C34.9191 32.7404 34.7466 32.9099 34.5817 33.0609C34.5441 33.1004 34.5045 33.138 34.4631 33.1734C34.4201 33.2094 34.3804 33.2491 34.3444 33.2921C33.9423 33.6819 33.5262 34.0624 33.1118 34.406C33.4677 34.6834 33.8098 34.9731 34.1333 35.2643C34.5154 34.9345 34.9037 34.5848 35.2673 34.2289L35.386 34.1102C35.4236 34.0707 35.4632 34.0332 35.5046 33.9977L35.9931 33.5108C36.1471 33.3568 36.2904 33.2027 36.4276 33.0486C36.4676 33.0024 36.5077 32.9639 36.54 32.9238C36.5598 32.9037 36.5774 32.8814 36.5924 32.8575C36.6119 32.8417 36.6299 32.8241 36.6464 32.8052C36.9823 32.4292 37.2981 32.0348 37.6078 31.6449C37.3705 31.5969 37.1372 31.531 36.9098 31.4477M45.8372 24.5141H45.6724C45.5537 24.5064 42.6462 24.36 40.6232 25.9702C39.5215 26.8469 38.6047 28.0934 37.6433 29.4185C37.6032 29.4724 37.5693 29.5171 37.5308 29.5726C37.9915 29.7479 38.4816 29.8331 38.9745 29.8237V29.816C39.785 28.7082 40.5769 27.6866 41.4398 26.9948C42.449 26.1967 43.7803 25.9394 44.657 25.8608H44.6647C44.7232 25.8608 44.7833 25.8608 44.8357 25.8469C44.8218 25.9008 44.8033 25.9532 44.7895 26.0118V26.0195C44.5584 26.8161 44.0638 27.9902 43.036 28.7821C41.9107 29.6223 40.5553 30.0981 39.1517 30.1457C39.097 30.152 39.0419 30.1546 38.9868 30.1534H38.9283C38.8666 30.1547 38.8048 30.1522 38.7434 30.1457C38.2596 30.1337 37.7826 30.0291 37.3382 29.8376C37.3123 29.8312 37.2878 29.8203 37.2658 29.8052C37.2359 29.7919 37.2071 29.7765 37.1795 29.759C37.1251 29.7392 37.0733 29.7128 37.0254 29.6804C37.0254 29.6804 37.0131 29.6804 37.0054 29.6666C36.8913 29.5985 36.7812 29.5239 36.6756 29.4431C36.6094 29.5294 36.5431 29.6142 36.4645 29.7005C36.2571 29.9514 36.0299 30.1854 35.7851 30.4C35.9318 30.518 36.0862 30.6261 36.2473 30.7235C36.275 30.742 36.3012 30.7621 36.3274 30.7759C36.3436 30.7871 36.3612 30.7959 36.3798 30.8021C36.4232 30.8305 36.4691 30.8547 36.5169 30.8745C36.7196 30.9835 36.9315 31.0743 37.1502 31.1457C37.3776 31.2257 37.6117 31.285 37.8497 31.3229L37.9283 31.3429C37.9622 31.3429 37.9946 31.3429 38.0346 31.3568C38.0958 31.3669 38.1576 31.3736 38.2195 31.3768C40.2262 31.572 42.233 31.0074 43.8434 29.7944C46.0113 28.1319 46.2887 25.3169 46.3087 25.1982L46.321 25.0442L46.3734 24.5295L45.8372 24.5141ZM35.2812 31.8591C35.0763 31.6341 34.8914 31.4107 34.708 31.1735V31.1657C34.6356 31.081 34.5694 31.0024 34.5046 30.9161C34.2288 30.5602 33.9577 30.1966 33.6942 29.8376L33.5956 29.6989C33.5632 29.6527 33.5293 29.6142 33.497 29.5679C33.4646 29.5217 33.4246 29.4693 33.3845 29.4139C32.4153 28.0888 31.4986 26.8423 30.4046 25.9656C28.38 24.357 25.474 24.5018 25.3477 24.5095H25.1828L24.6744 24.5419L24.7206 25.0565L24.7344 25.2106C24.7468 25.3292 25.0303 28.1381 27.1997 29.8068C28.8006 31.0394 30.9963 31.6064 32.8236 31.3892C32.5602 31.0517 32.309 30.7158 32.0717 30.3738V30.3661C32.0116 30.2875 31.9531 30.212 31.8992 30.1288C30.494 30.082 29.1369 29.6062 28.0102 28.7652C26.9809 27.9732 26.4863 26.8068 26.2568 26.0025V25.9948C26.2384 25.9407 26.223 25.8857 26.2105 25.83C26.2629 25.8377 26.3153 25.8377 26.3739 25.8438C27.2506 25.9224 28.5895 26.1797 29.591 26.9779C30.4554 27.6697 31.2459 28.6912 32.0563 29.7991C32.0964 29.853 32.1349 29.9115 32.175 29.9639L32.2936 30.118C32.3075 30.138 32.3198 30.1504 32.3337 30.1704C32.3475 30.1904 32.3337 30.1781 32.3337 30.1781C32.6172 30.5602 32.9007 30.9485 33.1904 31.3244C33.2238 31.3786 33.2614 31.4302 33.3028 31.4785C33.3096 31.4912 33.3185 31.5027 33.329 31.5124C33.3552 31.5525 33.3891 31.591 33.4153 31.6249C33.7235 32.0209 34.0316 32.403 34.3706 32.779C34.5247 32.6249 34.6788 32.4631 34.8328 32.3167C34.9869 32.1703 35.141 32.0086 35.2951 31.8545L35.2812 31.8591ZM34.7003 31.1657C34.6279 31.081 34.5617 31.0024 34.4969 30.9161C34.5293 30.9624 34.5555 30.9947 34.5894 31.0409C34.6233 31.0872 34.6618 31.1272 34.6942 31.1735L34.7003 31.1657ZM34.7003 31.1657C34.6279 31.081 34.5617 31.0024 34.4969 30.9161C34.5293 30.9624 34.5555 30.9947 34.5894 31.0409C34.6233 31.0872 34.6618 31.1272 34.6942 31.1735L34.7003 31.1657ZM36.8698 35.6957C36.4615 36.0716 36.0855 36.4399 35.7296 36.7974L35.6371 36.8883L35.6109 36.916C35.5716 36.951 35.534 36.9881 35.4985 37.0269C35.3444 37.181 35.1903 37.3351 35.0362 37.4692C34.8821 37.6032 34.7204 37.7773 34.5617 37.9576L34.4569 38.0824C34.4168 38.1224 34.3845 38.161 34.3444 38.2072C34.0547 38.5369 33.7635 38.8928 33.4677 39.2858C33.6976 39.4414 33.9136 39.6167 34.1133 39.8096C34.2313 39.9286 34.3395 40.0569 34.4369 40.1933C34.7327 39.8035 35.01 39.4537 35.2797 39.1378C35.3197 39.0916 35.3598 39.0516 35.3921 39.013C35.4245 38.9745 35.4584 38.9329 35.4985 38.8944L35.7219 38.6509C35.802 38.5724 35.876 38.4969 35.953 38.426C36.1071 38.2812 36.2612 38.1178 36.4276 37.9638C36.4676 37.9175 36.5 37.8836 36.54 37.8451L36.5539 37.8312L36.6525 37.7326C37.0408 37.3567 37.4691 36.9407 37.9237 36.5324C37.5616 36.2689 37.2195 35.9977 36.8759 35.708M34.9422 42.9529C34.9455 42.918 34.9455 42.8829 34.9422 42.8481C34.9327 42.6932 34.9152 42.5389 34.8898 42.3858C34.881 42.2945 34.8655 42.2038 34.8436 42.1147C34.8465 42.0994 34.8465 42.0837 34.8436 42.0684C34.8298 41.9837 34.8097 41.8974 34.7897 41.8127C34.7797 41.7492 34.7621 41.6871 34.7373 41.6278C34.7296 41.6136 34.7254 41.5977 34.725 41.5815C34.705 41.5091 34.6788 41.4429 34.6587 41.3705L34.6402 41.3181C34.6125 41.2364 34.5925 41.147 34.5601 41.0669C34.5205 40.9614 34.4741 40.8584 34.4214 40.7588C34.3852 40.7108 34.3542 40.6592 34.329 40.6047C34.209 40.3974 34.0624 40.2068 33.893 40.0377C33.6677 39.8097 33.4152 39.6105 33.141 39.4445C32.9305 39.3091 32.7077 39.1941 32.4754 39.1009C32.3012 39.0382 32.1231 38.9868 31.9423 38.9468C30.8268 38.7157 29.588 38.9868 28.2829 39.7634C27.927 39.9732 27.5857 40.207 27.2614 40.4629C27.1208 40.5724 26.9861 40.6892 26.8577 40.8127C24.9394 42.6447 24.716 45.4936 24.7005 45.6246L24.6882 45.7972L24.6374 46.281L25.1258 46.3149L25.2907 46.3272C25.4355 46.3349 28.779 46.5383 30.7297 44.5938C31.5672 43.7477 32.3554 42.8541 33.0902 41.9174L33.0979 41.9097H33.0902C33.0667 41.831 33.0384 41.7539 33.0055 41.6786C32.9716 41.6062 32.9392 41.5338 32.9053 41.4752C32.8806 41.4308 32.8523 41.3885 32.8206 41.3489C32.7905 41.3011 32.7548 41.2571 32.7142 41.2179C32.6443 41.1468 32.5696 41.0804 32.4908 41.0192C32.4171 40.9569 32.3376 40.9017 32.2535 40.8543C31.4932 41.8391 30.6736 42.7766 29.7991 43.6616C28.8099 44.6508 27.2537 44.9282 26.2845 45.0006H26.2722C26.2211 45.0078 26.1696 45.0124 26.1181 45.0145L26.1566 44.8496V44.8419C26.3677 43.8927 26.8823 42.4228 28.0626 41.506C28.9331 40.8343 30.0348 40.201 31.1149 40.201C31.4777 40.1971 31.8366 40.2762 32.1642 40.4321C32.2178 40.4479 32.2695 40.4696 32.3183 40.4968C32.3418 40.5093 32.3636 40.5248 32.383 40.543C32.4058 40.5545 32.4279 40.5674 32.4492 40.5816C32.6287 40.6941 32.7947 40.827 32.9438 40.9776C33.1149 41.1566 33.2453 41.3705 33.3259 41.6047C33.352 41.6622 33.3741 41.7214 33.3922 41.7818C33.414 41.8444 33.432 41.9082 33.4461 41.9729C33.4723 42.0715 33.4985 42.184 33.5185 42.2949C33.5185 42.3211 33.5185 42.3489 33.5309 42.3751C33.5509 42.486 33.5648 42.5923 33.5833 42.711C33.5833 42.7433 33.591 42.7772 33.591 42.8157C33.591 42.8296 33.591 42.8435 33.591 42.8558C33.5942 42.8932 33.5942 42.9308 33.591 42.9683C33.6048 43.073 33.611 43.1794 33.6172 43.2903C33.6608 44.5525 33.5479 45.8153 33.2813 47.0498C33.2489 47.2147 33.215 47.3857 33.1765 47.5506C33.0287 48.2212 32.8461 48.8836 32.6295 49.5351C32.5232 49.8649 32.4107 50.1884 32.2797 50.5043C32.1488 50.8202 32.0286 51.1299 31.8838 51.4288L32.7266 51.8279L33.0948 52.0066H33.1025C33.2073 51.7832 33.3059 51.5444 33.4107 51.3009C33.4754 51.1299 33.5417 50.9527 33.6141 50.7739C33.6865 50.5952 33.7681 50.3718 33.839 50.1576C33.9099 49.9435 33.9777 49.7432 34.0362 49.5321C34.0502 49.4933 34.0615 49.4537 34.0701 49.4134C34.1487 49.15 34.2242 48.8849 34.2936 48.6153C34.3459 48.4165 34.3922 48.2193 34.4476 48.0144C34.5206 47.7124 34.5868 47.4094 34.6464 47.1053C34.705 46.7971 34.7512 46.4982 34.7912 46.1947C34.8236 45.9913 34.8498 45.7925 34.8698 45.5953C34.8898 45.3981 34.9099 45.2194 34.9299 45.0345C34.9269 45.0271 34.9253 45.0193 34.9253 45.0114C34.9253 45.0034 34.9269 44.9956 34.9299 44.9882C34.9668 44.6073 34.9842 44.2247 34.9823 43.8419C34.9823 43.6709 34.9823 43.506 34.97 43.3411C34.97 43.2086 34.9561 43.0838 34.9422 42.9575M34.705 31.1688C34.6325 31.0841 34.5663 31.0055 34.5016 30.9192C34.5339 30.9654 34.5601 30.9978 34.594 31.044C34.6279 31.0902 34.6664 31.1303 34.6988 31.1765L34.705 31.1688ZM37.5601 42.0222C37.2627 41.6463 36.9792 41.2765 36.7095 40.9267L36.6109 40.8019C35.3506 43.3596 36.3937 48.7663 37.9098 52.0174L39.1086 51.4565C37.6463 48.3241 37.0316 44.1377 37.5678 42.0284M46.3503 45.8064V45.7987L46.3364 45.6338C46.3364 45.4967 46.073 42.2595 43.7726 40.4722C41.1085 38.409 39.1964 38.6926 38.0223 39.3705C38.1086 39.483 38.1933 39.6016 38.2858 39.7203C38.4645 39.9514 38.6494 40.1825 38.8328 40.4321C39.9483 39.8851 41.3319 40.2472 42.9667 41.5107C44.147 42.4351 44.6616 43.9035 44.8727 44.8465V44.8542C44.8891 44.9084 44.9025 44.9634 44.9128 45.0191C44.8604 45.0191 44.8003 45.0191 44.7417 45.0052C43.7664 44.9328 42.224 44.6631 41.2272 43.6663C40.3472 42.7827 39.5238 41.8445 38.7619 40.8574C38.7295 40.8111 38.6895 40.7726 38.6571 40.7264C38.6499 40.7175 38.6432 40.7083 38.6371 40.6987C38.6082 40.6677 38.5814 40.6347 38.557 40.6001C38.3736 40.3689 38.201 40.1378 38.0362 39.9283C37.9376 39.8019 37.8451 39.6771 37.7527 39.5585C37.7203 39.5123 37.6879 39.4799 37.654 39.4337C37.6217 39.3874 37.5878 39.3489 37.5554 39.3027C37.2473 38.9129 36.9684 38.557 36.671 38.2241C36.5169 38.3782 36.3629 38.5416 36.2088 38.6864C36.0547 38.8312 35.9006 38.9945 35.7465 39.1687C36.0239 39.4922 36.2997 39.8404 36.6032 40.2303C36.6371 40.2765 36.6695 40.3227 36.7095 40.3689C36.7447 40.417 36.7822 40.4633 36.822 40.5076C36.8744 40.5862 36.9407 40.6617 36.9992 40.7449C37.2242 41.0407 37.4614 41.3443 37.7049 41.6601C37.745 41.7064 37.7835 41.7603 37.8297 41.8142C37.8759 41.8681 37.9083 41.919 37.9483 41.9683C38.6726 42.8885 39.45 43.7657 40.2765 44.5953C42.2287 46.5475 45.5707 46.3365 45.7155 46.3287L45.8696 46.3164L46.3642 46.2825L46.3503 45.8064ZM34.7188 31.1688C34.6464 31.0841 34.5801 31.0055 34.5154 30.9192C34.5478 30.9654 34.574 30.9978 34.6079 31.044C34.6418 31.0902 34.6803 31.1303 34.7127 31.1765L34.7188 31.1688Z" fill="white"/>
</g>
<defs>
<linearGradient id="paint0_linear_6_135" x1="12.7486" y1="-7.78566" x2="58.2915" y2="78.8627" gradientUnits="userSpaceOnUse">
<stop offset="0.13" stop-color="#00B099"/>
<stop offset="0.14" stop-color="#00AD96"/>
<stop offset="0.26" stop-color="#008F78"/>
<stop offset="0.39" stop-color="#007861"/>
<stop offset="0.53" stop-color="#006750"/>
<stop offset="0.68" stop-color="#005D46"/>
<stop offset="0.87" stop-color="#005A43"/>
</linearGradient>
<clipPath id="clip0_6_135">
<rect width="71" height="71" fill="white"/>
</clipPath>
</defs>
</svg>
